<svg id="Layer_1" data-name="Layer 1" xmlns="http://www.w3.org/2000/svg" viewBox="0 0 155 155"><defs><style>.cls-1{fill:#fdfdfd;}.cls-2{fill:#4974b7;}.cls-3{fill:#2daf3a;}.cls-4{fill:#2cae39;}.cls-5{fill:#30b03c;}.cls-6{fill:#f0f3f8;}</style></defs><title>logo</title><path class="cls-1" d="M155,155H0V0H155ZM70,9.87c-3.48,6.4-5.89,12.1-9.38,17-9,12.77-18.53,25.2-27.81,37.78C27,72.61,22.87,81.17,23,91.34c.26,23.75,18.5,45.22,42,49a7.16,7.16,0,0,0,4.49-1.25A42.3,42.3,0,0,0,88,114.06,69.19,69.19,0,0,0,88.34,79C82.79,56.27,76.4,33.79,70,9.87Zm48.08,59.82-1.63.75a60.44,60.44,0,0,1,.67,7.19c-.39,17-8.19,29.72-22.79,38.37-1.49.88-3.36,2-3.93,3.4-4.52,11.41-12.67,19.29-23.25,25-.93.51-1.43,1.84-2.13,2.78,1.27,0,2.71.42,3.8,0,7.33-3,14.47-6.6,21.89-9.41,22-8.31,35.77-30.5,32.2-53.16C122.09,79.5,119.72,74.65,118.07,69.69ZM97.93,45.56c2.42,9.63,1.62,18.45-2.56,26.3-2.84,5.33-2.33,10.24-2,15.66.4,6.6,0,13.24-.08,19.86,0,1.53-.18,3.06-.3,4.88C114.41,100.37,123.4,64,97.93,45.56ZM75,8.12c1.93,22,11.69,42,16.38,63.44C97.43,57,97,43.05,88.39,29.64,83.82,22.53,79.43,15.3,75,8.12Z"/><path class="cls-2" d="M70,9.87C76.4,33.79,82.79,56.27,88.34,79A69.19,69.19,0,0,1,88,114.06a42.3,42.3,0,0,1-18.58,25.07,7.16,7.16,0,0,1-4.49,1.25c-23.45-3.82-41.69-25.29-41.95-49-.11-10.17,4-18.73,9.82-26.65,9.28-12.58,18.79-25,27.81-37.78C64.1,22,66.51,16.27,70,9.87ZM66.42,128.6,37.71,109.17c5.61,10.23,14,17.35,25.69,20.32C64.48,129.77,65.89,128.77,66.42,128.6Z"/><path class="cls-3" d="M118.07,69.69c1.65,5,4,9.81,4.83,14.91,3.57,22.66-10.19,44.85-32.2,53.16-7.42,2.81-14.56,6.36-21.89,9.41-1.09.46-2.53.05-3.8,0,.7-.94,1.2-2.27,2.13-2.78,10.58-5.74,18.73-13.62,23.25-25,.57-1.43,2.44-2.52,3.93-3.4,14.6-8.65,22.4-21.33,22.79-38.37a60.44,60.44,0,0,0-.67-7.19Z"/><path class="cls-4" d="M97.93,45.56C123.4,64,114.41,100.37,93,112.26c.12-1.82.28-3.35.3-4.88.08-6.62.48-13.26.08-19.86-.33-5.42-.84-10.33,2-15.66C99.55,64,100.35,55.19,97.93,45.56Z"/><path class="cls-5" d="M75,8.12c4.48,7.18,8.87,14.41,13.44,21.52,8.6,13.41,9,27.38,2.94,41.92C86.64,50.14,76.88,30.07,75,8.12Z"/><path class="cls-6" d="M66.42,128.6c-.53.17-1.94,1.17-3,.89-11.68-3-20.08-10.09-25.69-20.32Z"/></svg>