<?xml version="1.0" ?><!DOCTYPE svg  PUBLIC '-//W3C//DTD SVG 1.1//EN'  'http://www.w3.org/Graphics/SVG/1.1/DTD/svg11.dtd'><svg height="100%" style="fill-rule:evenodd;clip-rule:evenodd;stroke-linejoin:round;stroke-miterlimit:2;" version="1.1" viewBox="0 0 100 100" width="100%" xml:space="preserve" xmlns="http://www.w3.org/2000/svg" xmlns:serif="http://www.serif.com/" xmlns:xlink="http://www.w3.org/1999/xlink"><g transform="matrix(1,0,0,1,-250,-50)"><g id="Layer1"><rect height="71" style="fill:rgb(242,175,13);" width="61" x="269.5" y="64.5"/><path d="M323,94.5L300,73.5L277,94.5L277,135.5L323,135.5L323,94.5Z" style="fill:rgb(242,13,13);"/><path d="M318,96.536L318,135.5C318,135.5 282,135.5 282,135.5C282,135.5 282,96.536 282,96.536C282,96.536 300,80.658 300,80.658L318,96.536Z" style="fill:rgb(242,175,13);"/><path d="M300,99.347L302.358,105.721L308.732,108.079L302.358,110.437L300,116.81L297.642,110.437L291.268,108.079L297.642,105.721L300,99.347Z" style="fill:rgb(13,242,121);"/><path d="M332,145.5L332,54.5C332,53.672 331.328,53 330.5,53C329.672,53 329,53.672 329,54.5L329,63L321.833,63L321.833,54.5C321.833,53.672 321.161,53 320.333,53C319.505,53 318.833,53.672 318.833,54.5L318.833,63L311.667,63L311.667,54.5C311.667,53.672 310.995,53 310.167,53C309.339,53 308.667,53.672 308.667,54.5L308.667,63L301.5,63L301.5,54.5C301.5,53.672 300.828,53 300,53C299.172,53 298.5,53.672 298.5,54.5L298.5,63L291.333,63L291.333,54.5C291.333,53.672 290.661,53 289.833,53C289.005,53 288.333,53.672 288.333,54.5L288.333,63L281.167,63L281.167,54.5C281.167,53.672 280.495,53 279.667,53C278.839,53 278.167,53.672 278.167,54.5L278.167,63L271,63L271,54.5C271,53.672 270.328,53 269.5,53C268.672,53 268,53.672 268,54.5L268,145.5C268,146.328 268.672,147 269.5,147C270.328,147 271,146.328 271,145.5L271,137L278.167,137L278.167,145.5C278.167,146.328 278.839,147 279.667,147C280.495,147 281.167,146.328 281.167,145.5L281.167,137L288.333,137L288.333,145.5C288.333,146.328 289.005,147 289.833,147C290.661,147 291.333,146.328 291.333,145.5L291.333,137L298.5,137L298.5,145.5C298.5,146.328 299.172,147 300,147C300.828,147 301.5,146.328 301.5,145.5L301.5,137L308.667,137L308.667,145.5C308.667,146.328 309.339,147 310.167,147C310.995,147 311.667,146.328 311.667,145.5L311.667,137L318.833,137L318.833,145.5C318.833,146.328 319.505,147 320.333,147C321.161,147 321.833,146.328 321.833,145.5L321.833,137L329,137L329,145.5C329,146.328 329.672,147 330.5,147C331.328,147 332,146.328 332,145.5ZM329,66L271,66C271,66 271,134 271,134L275.5,134L275.5,94.5C275.5,94.079 275.677,93.676 275.989,93.392L298.989,72.392C299.561,71.869 300.439,71.869 301.011,72.392L324.011,93.392C324.323,93.676 324.5,94.079 324.5,94.5L324.5,134L329,134L329,66ZM321.5,134L321.5,95.162L300,75.531C300,75.531 278.5,95.162 278.5,95.162C278.5,95.162 278.5,134 278.5,134L280.5,134L280.5,96.536C280.5,96.105 280.685,95.696 281.008,95.411L299.008,79.533C299.575,79.033 300.425,79.033 300.992,79.533L318.992,95.411C319.315,95.696 319.5,96.105 319.5,96.536L319.5,134L321.5,134ZM316.5,134L283.5,134L283.5,97.213C283.5,97.213 300,82.658 300,82.658L316.5,97.213L316.5,134ZM301.407,98.827C301.189,98.238 300.628,97.847 300,97.847C299.372,97.847 298.811,98.238 298.593,98.827L296.474,104.553C296.474,104.553 290.748,106.672 290.748,106.672C290.159,106.89 289.768,107.451 289.768,108.079C289.768,108.707 290.159,109.268 290.748,109.486L296.474,111.605C296.474,111.605 298.593,117.331 298.593,117.331C298.811,117.92 299.372,118.31 300,118.31C300.628,118.31 301.189,117.92 301.407,117.331L303.526,111.605C303.526,111.605 309.252,109.486 309.252,109.486C309.841,109.268 310.232,108.707 310.232,108.079C310.232,107.451 309.841,106.89 309.252,106.672L303.526,104.553C303.526,104.553 301.407,98.827 301.407,98.827ZM300,103.67L300.952,106.241C301.103,106.652 301.427,106.975 301.838,107.127L304.409,108.079C304.409,108.079 301.838,109.03 301.838,109.03C301.427,109.182 301.103,109.506 300.952,109.917L300,112.488C300,112.488 299.048,109.917 299.048,109.917C298.897,109.506 298.573,109.182 298.162,109.03L295.591,108.079C295.591,108.079 298.162,107.127 298.162,107.127C298.573,106.975 298.897,106.652 299.048,106.241L300,103.67Z"/></g></g></svg>