<svg xmlns="http://www.w3.org/2000/svg" width="400" height="131" viewBox="0 0 29.9829 9.8336">
  <g fill-rule="evenodd">
    <path id="textExtended" d="M12.5341 1.8398h-1.0724l.003.0462.009.041.005.0218.005.019.007.0205.007.0187.009.0187.008.0155.0102.017.009.0168.012.0138.012.0152.0138.0155.0138.012.0138.0138.0155.0116.0173.012.0155.008.0173.009.0169.0102.019.007.0173.007.019.007.0206.005.0208.005.0222.003.0448.004.0466.004h.0293l.0275-.004.0275-.002.0293-.003.024-.005.026-.005.024-.005.0223-.0102.0226-.007.0222-.012.0208-.008.0173-.0138.0205-.012.0173-.0138.0173-.0134.0155-.0173.1358.2816-.024.0187-.024.019-.028.0152-.0274.0155-.0293.0134-.0307.0138-.0328.0138-.0346.008-.0342.008-.0381.0102-.036.005-.04.005-.0412.005-.043.005-.0448.002h-.043l-.043-.002-.0413-.002-.0413-.005-.0378-.005-.0381-.007-.0378-.0102-.0346-.0102-.036-.0137-.0328-.0134-.0328-.0155-.0307-.0187-.0293-.0173-.0293-.0205-.0275-.022-.028-.024-.0256-.0256-.024-.0272-.0226-.029-.0205-.0306-.0208-.0293-.0155-.034-.017-.0324-.0154-.036-.012-.0356-.0141-.0378-.008-.0374-.0102-.041-.005-.0426-.005-.0427-.005-.0444-.002-.046V1.6974l.004-.0461.004-.0427.005-.0444.007-.041.0102-.0408.0102-.0392.0138-.0392.0155-.0377.0155-.0356.019-.036.019-.0325.0222-.0321.0222-.0325.026-.0307.0259-.0293.0275-.0272.0275-.0272.031-.024.0293-.024.0293-.0187.0328-.0187.0307-.0187.0328-.0155.0346-.012.0325-.0134.0363-.009.0346-.0102.036-.005.0363-.005.0377-.001.0377-.002.0399.002.0395.001.0395.004.0363.005.036.008.0346.008.036.012.0328.0102.0328.0152.0307.0138.0293.0169.031.019.0275.0205.0275.0219.026.0208.0259.0272.024.0254.0226.0275.0205.0272.019.0275.019.0289.0138.0324.0155.0307.0138.0307.012.0339.0102.0342.008.036.005.0339.005.0378.005.0356.004.0395v.0392l-.002.0374-.007.048-.009.056zm-1.0587-.278h.7388l-.009-.0426-.007-.0392-.009-.036-.0138-.0342-.0155-.0307-.0155-.029-.0205-.024-.0208-.0235-.024-.0205-.0257-.019-.0311-.0152-.0293-.0102-.0328-.008-.036-.008-.0363-.004-.0413-.002-.0363.002-.0342.004-.0346.008-.031.008-.0293.0102-.0275.0152-.0275.019-.024.0205-.0226.0236-.0187.024-.0191.0289-.0173.0307-.0155.0342-.0138.036-.012.0392zm2.2003.9536l-.3856-.515-.346.515h-.4167l.5768-.8068-.5302-.773h.4046l.315.4827.3528-.4826h.4029l-.5786.7729.6305.8068zm.7112-1.283h-.1721V.9357h.1721V.615l.3514-.1348v.4555h.413v.2967h-.413V1.966l.003.0374.005.0342.005.0307.005.029.009.0257.012.0222.0102.017.0155.0168.0155.0155.019.012.0188.0102.0243.007.0275.005.0275.003.0293.002.031-.002.0325-.003.0293-.005.0293-.007.031-.012.0275-.0102.0275-.0155.0275-.0187v.3412l-.0307.008-.0363.0102-.0377.007-.043.007-.0448.004-.0483.005-.0515.002-.055.002h-.028l-.0256-.002-.0257-.005-.0258-.004-.0243-.004-.024-.005-.0222-.007-.0226-.008-.0205-.008-.0208-.012-.0205-.0102-.019-.012-.0191-.0116-.0155-.0155-.0155-.0138-.017-.017-.014-.0168-.0138-.019-.012-.017-.012-.0204-.0102-.0205-.0102-.0222-.009-.0222-.007-.0236-.009-.024-.007-.024-.004-.0254-.007-.0275-.001-.0272-.004-.0307v-.029l-.002-.0292zm2.4088.6074h-1.0728l.004.0462.007.041.003.0218.005.019.008.0205.007.0187.007.0187.0106.0155.008.017.012.0168.0102.0138.014.0152.012.0155.0139.012.0155.0138.0138.0116.0155.012.0169.008.0155.009.019.0102.019.007.0187.007.0173.007.0208.005.0205.005.0226.003.043.004.0483.004h.0289l.0293-.004.0279-.002.0258-.003.0257-.005.0258-.005.024-.005.0226-.0102.0222-.007.0226-.012.0205-.008.019-.0138.019-.012.0173-.0138.0169-.0134.0173-.0173.1361.2816-.0243.0187-.0275.019-.0257.0152-.0275.0155-.0293.0134-.0328.0138-.031.0138-.0325.008-.0363.008-.036.0102-.038.005-.0414.005-.0413.005-.0413.005-.043.002h-.0448l-.043-.002-.0413-.002-.0413-.005-.038-.005-.0379-.007-.036-.0102-.0363-.0102-.0346-.0137-.0342-.0134-.031-.0155-.0328-.0187-.0293-.0173-.0293-.0205-.0275-.022-.0258-.024-.0275-.0256-.024-.0272-.0226-.029-.019-.0306-.0205-.0293-.019-.034-.0155-.0324-.0138-.036-.0138-.0356-.0138-.0378-.008-.0374-.009-.041-.008-.0426-.005-.0427-.003-.0444-.002-.046V1.6974l.002-.0461.005-.0427.005-.0444.008-.041.009-.0408.012-.0392.012-.0392.0155-.0377.0173-.0356.0155-.036.0205-.0325.0226-.0321.0222-.0325.024-.0307.0275-.0293.028-.0272.0292-.0272.0293-.024.029-.024.031-.0187.031-.0187.031-.0187.0345-.0155.031-.012.036-.0134.0328-.009.036-.0102.0363-.005.036-.005.0381-.001.0377-.002.0413.002.0377.001.04.004.0376.005.0346.008.036.008.0346.012.0342.0102.031.0152.031.0138.031.0169.0293.019.0275.0205.0275.0219.0257.0208.0243.0272.0258.0254.0205.0275.0226.0272.019.0275.017.0289.0172.0324.0138.0307.0138.0307.0106.0339.012.0342.007.036.007.0339.007.0378.004.0356.002.0395.002.0392-.002.0374-.005.048-.0102.056zm-1.0622-.278h.7383l-.005-.0426-.009-.0392-.0102-.036-.012-.0342-.0138-.0307-.0173-.029-.0208-.024-.0205-.0235-.0243-.0205-.0258-.019-.0293-.0152-.031-.0102-.0325-.008-.0346-.008-.0377-.004-.0413-.002-.0363.002-.0342.004-.0328.008-.0328.008-.0293.0102-.0275.0152-.0257.019-.0243.0205-.0222.0236-.0208.024-.0187.0289-.0173.0307-.0155.0342-.0137.036-.0102.0392zm2.3191.9536v-.9109l-.002-.051-.004-.0428-.007-.0427-.007-.0392-.0102-.0342-.0138-.0342-.0155-.0272-.0155-.0258-.0102-.012-.0106-.008-.012-.0102-.0102-.0102-.0138-.007-.012-.007-.0138-.008-.0155-.005-.031-.0102-.0346-.008-.0377-.004-.0395-.002h-.0208l-.0173.002-.0205.004-.0208.005-.0208.008-.0222.007-.0208.008-.0222.012-.0208.0102-.0205.0134-.0173.0138-.019.0138-.0169.0134-.0155.0155-.0138.0152-.0138.0173v1.1413h-.3496V.9359h.253l.0638.1468.019-.0205.0205-.0187.019-.0191.0205-.017.0243-.0168.0222-.0138.0258-.0138.0275-.012.0261-.0102.0275-.008.0293-.007.0293-.008.0325-.004.031-.004.0346-.001.0328-.002.0324.002.0328.001.031.004.0328.004.0293.007.0275.007.0275.009.0258.0102.0258.0117.0275.012.0243.0138.024.0155.0222.0169.019.0169.0208.0187.0205.0208.019.0219.0191.0222.0138.024.0155.0254.0152.0257.0123.0258.012.0272.008.0307.0106.0289.008.0307.005.0342.005.0324.005.0325.004.0356.001.0377v1.0046zm1.7046 0v-.0956l-.0123.012-.0138.012-.0155.012-.0169.0102-.019.012-.0227.0102-.0222.0102-.0258.008-.0258.008-.026.008-.0276.007-.0258.005-.0275.004-.0258.005-.0275.002h-.0275l-.0399-.002-.0377-.002-.0363-.005-.036-.005-.0346-.007-.0342-.0102-.031-.0102-.031-.0137-.0328-.012-.0275-.0169-.0293-.0169-.0258-.0173-.0275-.0205-.0258-.0222-.0243-.0236-.0222-.0258-.0222-.0272-.0208-.0289-.0173-.0293-.019-.0307-.0152-.0325-.014-.032-.0139-.0343-.0138-.036-.0102-.0356-.007-.0392-.0106-.0413-.005-.0409-.005-.0409-.004-.044-.002-.0445V1.704l.004-.0445.004-.0445.005-.044.007-.041.0102-.0395.009-.0409.0138-.0392.012-.0356.0155-.0377.0173-.0339.0205-.036.0173-.0325.0226-.0342.024-.0289.024-.0307.0275-.0272.0275-.0289.0275-.024.028-.024.0292-.0187.0325-.0205.0293-.0169.0346-.0173.031-.012.0325-.0134.0363-.009.0346-.0102.036-.005.0363-.005.0378-.001.0395-.002.043.002.0395.003.0416.005.0395.0102.0377.008.0381.0138.036.0134.0363.0173V.347l.3493-.0885v2.2553zm0-1.2026l-.0293-.0222-.0279-.0187-.0275-.0155-.0307-.0138-.0293-.008-.0293-.008-.031-.005-.0293-.002-.0258.002-.026.001-.024.002-.024.005-.0227.005-.0222.005-.0208.005-.0222.0102-.019.008-.0206.009-.0155.0117-.019.012-.0173.0138-.0173.0138-.0138.0152-.0155.0173-.012.0169-.0138.0169-.0138.0187-.008.0208-.0106.0219-.0102.0222-.008.0222-.009.024-.005.024-.005.0254-.005.0272-.003.0258-.005.0307-.002.0289-.002.0289v.0307l.002.06.007.056.003.0259.005.0272.005.024.005.024.009.0219.008.0208.0102.0205.009.0205.0102.0187.0138.0187.0138.0152.012.0173.0155.0152.0138.012.0173.0138.0173.012.019.012.017.008.0207.0102.0208.008.0205.007.024.007.0226.005.024.004.0257.004.0261.001.0258.002.0293.002.0257-.004.0293-.005.0346-.008.0342-.0155.0328-.0152.0293-.0155.0102-.008.0102-.008.007-.007.007-.008zm2.0211.527H20.706l.004.0462.007.041.007.0218.005.019.005.0205.008.0187.009.0187.008.0155.0102.017.009.0168.0138.0138.0102.0152.0138.0155.0138.012.0138.0138.0155.0116.0155.012.0173.008.0173.009.0155.0102.0187.007.019.007.0208.007.0187.005.0226.005.0205.003.043.004.0466.004h.031l.0275-.004.0275-.002.0275-.003.0258-.005.026-.005.024-.005.024-.0102.0227-.007.0187-.012.0208-.008.0205-.0138.019-.012.0173-.0138.0155-.0134.0173-.0173.1358.2816-.024.0187-.024.019-.0261.0152-.0293.0155-.0293.0134-.0307.0138-.0328.0138-.0346.008-.0342.008-.0363.0102-.0395.005-.0377.005-.0416.005-.043.005-.0448.002h-.0444l-.043-.002-.04-.002-.0412-.005-.0395-.005-.0363-.007-.0378-.0102-.036-.0102-.0328-.0137-.0328-.0134-.0342-.0155-.031-.0187-.0293-.0173-.0293-.0205-.0275-.022-.0275-.024-.0243-.0256-.024-.0272-.024-.029-.0208-.0306-.0191-.0293-.0187-.034-.0155-.0324-.0155-.036-.0138-.0356-.0106-.0378-.012-.0374-.007-.041-.007-.0426-.005-.0427-.005-.0444-.004-.046V1.6974l.004-.0461.005-.0427.005-.0444.009-.041.0102-.0408.0102-.0392.0138-.0392.012-.0377.0173-.0356.019-.036.019-.0325.0205-.0321.0258-.0325.0243-.0307.0258-.0293.0275-.0272.0275-.0272.0293-.024.031-.024.031-.0187.0293-.0187.0342-.0187.031-.0155.0347-.012.0328-.0134.0342-.009.0363-.0102.036-.005.0363-.005.0377-.001.0377-.002.0399.002.0395.001.0377.004.038.005.0378.008.0346.008.0342.012.0328.0102.031.0152.0328.0138.0293.0169.0289.019.0293.0205.0279.0219.0258.0208.0257.0272.024.0254.0226.0275.0205.0272.019.0275.0174.0289.0173.0324.0155.0307.012.0307.012.0339.008.0342.0106.036.007.0339.005.0378.003.0356.002.0395v.0392l-.002.0374-.005.048-.009.056zm-1.0587-.278h.737l-.005-.0426-.008-.0392-.0106-.036-.012-.0342-.0155-.0307-.0173-.029-.017-.024-.0225-.0235-.024-.0205-.0275-.019-.0275-.0152-.031-.0102-.0346-.008-.0342-.008-.0381-.004-.0377-.002-.0377.002-.0346.004-.0346.008-.0293.008-.0293.0102-.0293.0152-.0257.019-.024.0205-.0226.0236-.0222.024-.019.0289-.0155.0307-.0155.0342-.012.036-.0138.0392zm2.431.9536v-.0956l-.0102.012-.0155.012-.0155.012-.0173.0102-.0187.012-.0208.0102-.024.0102-.0243.008-.0258.008-.0275.008-.0275.007-.0258.005-.0275.004-.026.005-.0276.002h-.0275l-.0395-.002-.0377-.002-.0363-.005-.036-.005-.0328-.007-.0346-.0102-.0325-.0102-.031-.0137-.031-.012-.0293-.0169-.0275-.0169-.0275-.0173-.0275-.0205-.026-.0222-.024-.0236-.0223-.0258-.0226-.0272-.0205-.0289-.0173-.0293-.0173-.0307-.0173-.0325-.0138-.032-.0138-.0343-.0102-.036-.012-.0356-.009-.0392-.008-.0413-.007-.0409-.003-.0409-.004-.044-.002-.0445-.002-.048.002-.0459.002-.0445.004-.0445.005-.044.007-.041.0102-.0395.0102-.0409.0124-.0392.012-.0356.017-.0377.0172-.0339.0191-.036.019-.0325.0205-.0342.0243-.0289.0275-.0307.0258-.0272.0257-.0289.0275-.024.0293-.024.031-.0187.0293-.0205.031-.0169.0328-.0173.0325-.012.0328-.0134.0346-.009.0342-.0102.0381-.005.0342-.005.0395-.001.04-.002.0412.002.0395.003.0413.005.04.0102.0377.008.0377.0138.0381.0134.0342.0173V.347l.3496-.0885v2.2553zm0-1.2026l-.0275-.0222-.0293-.0187-.0275-.0155-.031-.0138-.0293-.008-.0293-.008-.031-.005-.0293-.002-.0258.002-.0258.001-.024.002-.0226.005-.024.005-.0226.005-.0205.005-.0208.0102-.0205.008-.019.009-.0173.0117-.0187.012-.0173.0138-.0155.0138-.0155.0152-.0138.0173-.0138.0169-.0137.0169-.0102.0187-.0123.0208-.0102.0219-.0102.0222-.007.0222-.007.024-.009.024-.005.0254-.005.0272-.004.0258-.003.0307-.004.0289v.1196l.007.056.004.0259.005.0272.005.024.009.024.007.0219.007.0208.0102.0205.0102.0205.0123.0187.0102.0187.0137.0152.012.0173.0155.0152.0138.012.0173.0138.0173.012.0187.012.0173.008.0208.0102.0205.008.0226.007.0222.007.0226.005.024.004.0257.004.0258.001.0261.002.0293.002.0275-.004.0293-.005.0324-.008.0346-.0155.0328-.0152.0293-.0155.0102-.008.0102-.008.007-.007.007-.008z" fill="#73c04d"/>
    <path id="textStayAmerica" d="M12.6714 3.8295l-.0296-.019-.0282-.0191-.0296-.019-.028-.0173-.0316-.0155-.0296-.0155-.03-.0138-.0296-.012-.0332-.0124-.0314-.008-.0335-.009-.0314-.007-.0332-.005-.0353-.004-.035-.004h-.0348l-.0596.002-.058.005-.026.004-.0261.005-.0247.005-.0243.007-.023.007-.0225.0106-.0212.008-.0208.0106-.0212.0102-.0176.0106-.0173.0137-.0176.0155-.0173.012-.0141.0155-.0141.0141-.0123.0173-.0138.0155-.009.0173-.0123.0155-.007.0173-.007.0173-.008.0155-.005.019-.004.019-.004.019-.004.0173-.004.0191v.0208l.004.0258.002.0243.004.024.007.0226.007.0226.0102.0226.0106.0205.014.0208.016.0208.0155.0173.0194.019.0208.0173.0247.019.0243.0138.0265.0173.0296.0155.0279.0106.0317.0138.0402.0138.0438.0155.0526.0191.0579.0208.0646.019.0702.0226.0716.024.0649.0208.0593.0226.0543.0208.0508.0191.0402.0205.0384.0159.0318.0173.0455.0275.0438.031.0402.031.0367.0314.0349.0363.0335.0377.0296.0399.0279.0416.0123.0226.014.0205.0107.0243.0102.0226.009.024.009.0243.009.0243.007.0257.0102.0519.0106.0554.004.0589.002.0586v.0487l-.004.0483-.005.0483-.009.0469-.0102.0448-.0123.0448-.0141.0434-.0173.0434-.0194.0395-.023.0399-.0225.0399-.0261.0363-.0282.0381-.0296.0346-.035.0346-.0334.0328-.0384.031-.0385.031-.0402.0279-.0437.0257-.0437.0226-.0473.0226-.049.019-.049.0173-.0526.0155-.0526.0137-.058.0102-.0556.009-.0614.008-.0596.005-.0646.002-.065.002-.0786-.002-.0755-.005-.0734-.007-.0716-.0123-.0353-.007-.0332-.009-.035-.008-.0334-.009-.0332-.012-.0314-.0102-.0296-.0123-.0317-.012-.0593-.0275-.0561-.0314-.0561-.031-.0508-.0363-.049-.0363-.0473-.0381-.0437-.0413-.042-.0434.399-.3803.0281.0363.0296.0346.0296.0328.0335.0275.035.028.0331.0274.0385.0226.037.019.0402.0173.0402.0173.0384.012.042.012.042.007.0437.007.0437.003.0437.002h.0282l.0296-.002.028-.003.0264-.004.0261-.004.0282-.005.0243-.005.0247-.009.0226-.008.023-.007.0225-.012.0194-.0106.0208-.012.0194-.012.019-.014.0176-.0156.016-.0138.0172-.0173.016-.0138.0122-.0173.0138-.0173.0106-.0173.0106-.0155.009-.019.009-.0173.007-.019.007-.0173.004-.019.004-.019.005-.0209.002-.019v-.019l-.002-.0294-.004-.0279-.004-.0257-.007-.0243-.007-.024-.0106-.0243-.0123-.0208-.014-.0222-.0156-.0208-.014-.0173-.0195-.019-.019-.0174-.0213-.0173-.0208-.014-.0212-.0139-.026-.012-.0177-.0102-.026-.009-.0354-.0138-.0402-.0138-.0473-.0159-.054-.0205-.063-.0208-.0668-.0226-.0699-.0243-.063-.0187-.0562-.0208-.0522-.019-.0437-.0173-.0388-.0138-.0314-.014-.0279-.0103-.0388-.0208-.0402-.0208-.0349-.0222-.0349-.0226-.0332-.0226-.0318-.0243-.0279-.024-.0265-.026-.0243-.0258-.0229-.026-.0226-.0294-.0194-.0293-.0208-.0314-.0159-.031-.0155-.0328-.0159-.0346-.0123-.0346-.0123-.0363-.0102-.0363-.007-.0363-.007-.038-.004-.04-.004-.0378v-.0416l.002-.0416.002-.0413.004-.0416.009-.0399.007-.038.008-.0396.0141-.038.0141-.0364.0141-.0363.0173-.0346.0194-.0363.0226-.0328.023-.0346.0242-.031.0265-.0314.028-.0328.0383-.0363.0402-.0363.042-.0328.0455-.031.0473-.0293.049-.026.049-.0227.0526-.0222.0561-.0173.0561-.0159.0593-.012.0596-.012.065-.009.0644-.007.065-.004.0698-.002.0702.002.0663.004.0667.007.0631.009.0593.012.0596.0137.0543.0173.0543.019.061.0261.0596.0275.0614.0328.0543.0346zM15.1605 3.2658v.4695h-.752v2.4515h-.5278V3.7353h-.7521v-.4695zM19.2291 5.0674v1.1194h-.5256V5.0674l-1.0876-1.8016h.6438l.5482 1.0234.0907.1457.0173.0293.0205.0392.024.043.024.0497.0205-.0413.0205-.0395.019-.0377.0205-.0377.0205-.0342.0208-.036.0187-.0342.0187-.0342.562-1.0354h.6198zM14.88 6.7371l.8432 2.082.8086-2.082h.5112l.3612 2.921h-.5094l-.213-1.9029-.7815 1.9029h-.375l-.848-2.0514-.2033 2.0326h-.4988l.3457-2.9022zM17.9122 6.7371h1.917v.4706H18.433v.7228h1.0781v.4657h-1.078v.7913h1.4689v.4706h-1.9897zM20.8523 8.6044V9.658h-.527v-2.921H21.3263l.048.002.048.003.0511.004.0497.005.048.005.0494.008.0497.008.0497.012.048.012.0476.0155.0462.0169.0462.0169.0462.0187.043.0222.0427.0258.041.0254.0394.0289.036.0325.036.0325.0325.036.0325.0392.0275.0409.0254.0445.0226.0476.0205.0494.0152.0529.0137.0561.0102.0582.007.0631.003.0663-.001.0699-.002.0462-.007.0441-.005.0445-.007.0392-.0102.0427-.008.0392-.0102.0377-.0138.0374-.0155.0342-.0134.0356-.0173.0325-.0187.0342-.019.0307-.0187.0289-.0205.0289-.0222.0272-.0222.0275-.024.0236-.024.024-.0258.024-.024.0222-.0289.0205-.0258.0205-.0275.0169-.0289.0187-.0275.0169-.0307.0155-.0293.0138-.0289.0134-.0307.012-.0293.0138-.0307.008.8146 1.1271h-.6572l-.6777-1.0537zm0-.4026h.4022l.0667-.005.031-.004.0307-.007.0293-.004.0289-.007.0275-.007.0272-.0102.0258-.008.0257-.012.024-.0102.0222-.0134.0222-.0138.0205-.0155.0205-.0169.0173-.0169.0187-.0205.0155-.0205.0152-.0222.0138-.024.0138-.024.0102-.0254.012-.0289.008-.0307.007-.0307.007-.0307.005-.036.003-.0356.002-.0377V7.6111l-.002-.0308-.003-.0325-.005-.0289-.007-.0257-.007-.0272-.008-.024-.0102-.024-.0102-.0219-.0138-.0205-.012-.0205-.0152-.019-.0155-.0153-.0155-.0169-.017-.0155-.0172-.012-.0187-.0134-.0205-.0102-.019-.012-.0205-.009-.0222-.0102-.0205-.007-.024-.007-.0222-.005-.048-.0102-.048-.007-.0497-.004h-.4809zM23.0769 9.6581h.5503v-2.921h-.5503zM26.15 7.3206l-.0347-.0243-.0374-.0226-.036-.0222-.0413-.0191-.0395-.016-.0427-.0154-.0409-.0102-.043-.0123-.0444-.007-.0445-.005-.0466-.005-.0462-.001-.0307.001-.0324.004-.031.002-.0325.004-.0293.004-.0307.005-.0289.009-.0328.007-.0289.008-.0293.0106-.0307.0102-.0293.012-.0289.0123-.031.0155-.0272.0138-.0293.0155-.0275.0173-.0272.0173-.0275.019-.0258.0208-.024.0208-.0258.0208-.0222.0226-.0222.024-.0222.0243-.0222.0243-.0208.0257-.0169.026-.019.028-.0188.0275-.0169.031-.0155.0296-.0155.031-.0155.0328-.012.0314-.0134.031-.0106.0346-.012.0328-.008.0328-.0102.0349-.007.0328-.005.0363-.005.0346-.003.0363-.005.0346-.004.038-.001.0364V8.2599l.001.0346.004.0363.002.0346.007.0363.005.0332.005.0328.007.0346.008.031.009.0346.012.0314.0102.0293.012.031.012.0314.0152.0293.0138.0293.0155.0279.0173.0293.0187.0279.017.0258.019.0243.0205.0243.0205.0243.0226.0222.0222.0226.024.0225.024.0207.0258.0173.0254.019.0258.019.0293.0174.0272.0156.0293.0156.0293.0138.0307.0104.029.0104.0274.009.0293.007.0325.005.0293.004.0614.009.06.002.0635.002h.0635l.0444-.002.041-.002.0412-.005.0413-.007.041-.009.0376-.009.0377-.014.0378-.0137.0342-.0156.036-.0173.0325-.0208.0342-.0225.0307-.0225.031-.026.0307-.026.0275-.0295.4043.386-.0342.0313-.036.031-.0342.0278-.0395.0277-.0395.0277-.0392.0242-.0413.0242-.0445.0242-.036.0173-.0342.0173-.0377.0138-.036.0138-.0377.012-.0392.0122-.0377.0104-.0413.0104-.0409.007-.0413.007-.0413.007-.0427.005-.0444.003-.0445.003-.0448.002h-.1094l-.0617-.002-.0617-.002-.06-.005-.0565-.003-.0582-.009-.055-.007-.0547-.0104-.0533-.0121-.051-.0121-.0516-.0173-.0497-.019-.048-.0208-.0462-.0225-.0462-.026-.0444-.0277-.043-.0294-.0427-.033-.0413-.031-.0377-.033-.0374-.0363-.0377-.0346-.0342-.0381-.0342-.0398-.0328-.0381-.0307-.0398-.0307-.0433-.0275-.0416-.0275-.045-.024-.045-.0258-.0466-.0222-.047-.0187-.0415-.0173-.0413-.0155-.04-.0152-.0415-.0138-.0434-.012-.043-.012-.0416-.008-.0434-.009-.043-.008-.0434-.007-.0452-.004-.0448-.005-.0452-.003-.043-.002-.047-.002-.0447.002-.0554.002-.0536.005-.054.005-.052.007-.05.0102-.0536.009-.0501.0138-.0487.012-.0501.0152-.0483.0155-.047.0187-.0482.0208-.047.0205-.0447.024-.047.024-.0447.0258-.0416.0272-.0434.0293-.0416.0275-.0413.0307-.0381.0325-.0381.031-.0346.0325-.0363.036-.0332.0342-.0346.0377-.0293.0377-.0293.0378-.0296.041-.0275.0412-.0261.0427-.0261.0413-.0222.0427-.0226.0444-.0208.0462-.0173.0462-.0173.0466-.0173.048-.0138.048-.0141.0476-.0102.0515-.0106.0515-.007.0515-.007.0512-.007.0533-.004.053-.002.055-.002.0666.002.0653.004.0632.007.0617.007.06.0102.0564.0124.0568.0138.053.0173.0514.019.0512.019.048.0208.0462.0226.0413.0205.0427.0243.0395.0279.0395.0258.002.002zM27.4432 8.9914l-.2692.6667h-.5835l1.2362-2.921h.5404l1.2291 2.921h-.6008l-.2744-.6667zm.1764-.4467h.92l-.3192-.788-.0208-.0477-.0173-.0476-.0173-.048-.0173-.0494-.019-.0494-.0173-.0512-.0138-.0529-.0173-.0529-.0173.0547-.0138.0547-.019.053-.0173.0511-.0187.0512-.019.0512-.0173.0494-.0191.0476zM11.6966 8.9914l-.2691.6667h-.585l1.2355-2.921h.54l1.2302 2.921h-.6004l-.2762-.6667zm.176-.4467h.918l-.3193-.788-.019-.0477-.019-.0476-.0188-.048-.0155-.0494-.0173-.0494-.0173-.0512-.0155-.0529-.0173-.0529-.0155.0547-.0155.0547-.0173.053-.0173.0511-.019.0512-.019.0512-.017.0494-.0208.0476zM15.7589 5.5546l-.2674.6745h-.585l1.2355-2.9633h.54l1.2302 2.9633h-.6004l-.2762-.6745zm.1778-.4551h.9161l-.3175-.7976-.019-.0483-.019-.0483-.0187-.0487-.0173-.0501-.0155-.0501-.0173-.0536-.0173-.052-.0155-.0535-.0155.0554-.0173.0536-.0173.0554-.0155.0519-.019.0519-.019.05-.0187.0502-.0208.0487zM29.4921 6.6948l.0208.002.0208.001.0222.005.0226.005.0226.005.0226.006.0205.01.0226.01.0208.0127.0208.0116.019.0145.0155.0148.0173.0162.0155.0162.012.0197.0141.0194.0102.0212.0106.0194.008.0212.009.0212.003.0198.004.0212.004.0226v.0441l-.004.0212-.004.0212-.003.0212-.009.0212-.007.0212-.012.0212-.0102.0194-.0123.0212-.0138.018-.0155.0162-.0138.0162-.0173.0166-.019.0127-.0208.013-.0208.0132-.0208.01-.0226.008-.0187.008-.0226.007-.0226.003-.0226.003-.024.005h-.0452l-.024-.005-.0226-.003-.0226-.003-.0226-.007-.0226-.008-.0222-.008-.0208-.01-.0208-.0131-.0208-.0131-.0173-.0127-.0173-.0166-.0155-.0162-.0155-.0162-.0138-.018-.0123-.0212-.0102-.0194-.0106-.0212-.008-.0212-.005-.0212-.005-.0212-.005-.0212-.002-.0212-.002-.023.002-.0211.002-.0226.005-.0212.005-.0198.007-.0212.007-.0212.0106-.0194.0102-.0212.0141-.0194.0138-.0197.0155-.0162.0155-.0162.019-.0148.0173-.0145.019-.0116.0208-.0127.0226-.01.0222-.01.0208-.006.0226-.005.0226-.005.0222-.005.0226-.001zm0 .0586h-.019l-.019.002-.019.003-.019.003-.0156.007-.019.006-.019.007-.0174.01-.0173.008-.0155.01-.0173.013-.012.013-.0159.013-.0102.0146-.012.013-.0106.018-.0102.0163-.007.018-.007.0162-.007.018-.004.018-.004.0176-.002.018V7.052l.002.0176.004.018.004.018.007.0162.007.018.007.0162.0102.018.009.0145.0102.0166.0138.0145.0141.0113.0138.0148.0155.01.0155.0113.0173.01.0173.01.019.007.019.006.0155.007.019.003.0191.003.019.002H29.5095l.0191-.002.019-.003.019-.003.019-.007.0173-.006.0173-.007.019-.01.0173-.01.0155-.0113.0155-.01.0155-.0148.0123-.0113.012-.0145.0102-.0166.0123-.0145.008-.018.007-.0162.008-.018.005-.0162.004-.018.002-.018.002-.0176.001-.0198-.001-.0162-.002-.018-.002-.0176-.005-.018-.005-.018-.007-.0162-.009-.0162-.008-.018-.0106-.0162-.0102-.0148-.0138-.0145-.0123-.013-.0155-.0131-.0155-.013-.0155-.01-.0173-.008-.019-.01-.0173-.007-.0173-.006-.019-.007-.019-.003-.019-.003-.019-.002zm-.0399.3157v.1485h-.09v-.3714h.1334l.0328.002.031.003.012.003.0141.005.008.003.009.005.0138.008.008.01.009.008.007.0113.005.0116.004.013.004.0128.002.0148-.002.0194-.005.0166-.005.0145-.009.0148-.012.0113-.0123.0113-.0173.008-.019.008.0988.1566h-.102l-.0885-.1485zm0-.073h.0518l.0173-.002.0106-.001.0102-.004.009-.005.005-.008.005-.01.002-.01v-.006l-.004-.008-.005-.006-.005-.005-.009-.005-.012-.001-.0138-.004-.019-.001h-.0434z" fill="#ffffff"/>
    <path d="M4.1881 1.063l.001-.048.004-.0483.007-.0462.008-.0462.012-.043.012-.0445.0155-.043.0152-.0427.019-.043.0205-.0377.0222-.0413.0258-.0377.0258-.036.0293-.036.0293-.0325.0307-.031.0325-.0325.0346-.0293.036-.0275.036-.0258.0377-.024L4.68.2446l.0409-.0205.043-.019.0427-.0169.043-.0138.0444-.0138.0466-.009.0445-.008.048-.007.0462-.002.048-.002.0483.002.048.004.0462.005.0462.0102.0448.009.0444.0138.0445.0134.043.0173.0395.0205.0409.0208.0395.0222.036.024.0377.0275.0342.0275.0346.029.0325.031.0307.0324.0293.0346.0275.0342.0257.0377.024.0377.0222.0395.0205.041.0191.0394.0169.043.0138.0445.0138.0448.009.0444.0102.0462.005.0466.004.048v.1253l-.004.079-.003.0787-.007.0755-.007.0773-.007.0755-.012.0773-.0102.0737-.0138.0755-.012.0737-.0155.072-.0169.0741-.0173.072-.0205.0737-.0208.0688-.0205.0702-.0275.0804-.0272.0773-.031.0773-.0293.079-.0325.0755-.0342.0737-.0342.0737-.0377.0737-.0377.072-.0395.0723-.0413.0702-.0427.0688-.043.0684-.0445.067-.0462.0667-.0466.0653-.0497.0635-.048.0635-.0515.0635-.0512.06-.055.06-.0533.0586-.0564.0582-.055.0568-.0565.0547-.06.055-.06.0515-.0586.0515-.0617.0515-.0617.048-.0631.0497-.0653.048-.0653.043-.0653.0445-.0649.043-.067.0427-.0684.0413-.0688.0378-.0702.0377-.0702.036-.0723.036-.0702.0328-.0755.0342-.072.029-.0737.0292-.0737.0275-.0755.0293-.0773.0258-.0755.0222-.0751.024-.079.0205-.0772.0173-.0773.0187-.0804.0173-.0772.0138-.0804.0138-.079.0102-.0804.012-.0808.007-.0822.009-.079.005-.0822.004-.0808.002H1.897l-.0737-.004-.0737-.003-.0737-.004-.0755-.009-.0754-.007-.0737-.012-.0737-.008-.0738-.012-.0755-.0155-.0737-.0155-.0737-.0155-.0737-.0187-.0738-.0208-.0755-.0205-.0737-.0222-.0446-.0173-.0446-.0152-.043-.0208-.0393-.0222-.0412-.024-.0394-.024-.036-.0275-.036-.0275-.0326-.0325-.0343-.031-.0292-.0342L.3349 4.59l-.0257-.0363-.0274-.036-.024-.0392-.019-.0377-.0205-.0413-.0172-.0413-.0171-.0427-.012-.0413-.0137-.043-.009-.0444-.009-.0448-.005-.0462-.003-.0444v-.0466l.002-.0462.003-.0462.005-.0466.0103-.0462.009-.0462.0154-.0466.0154-.0462.017-.0413.019-.0444.0223-.0413.024-.0395.0257-.0378.0257-.0377.0309-.0342.029-.036.031-.031.0343-.0289.0343-.031.036-.0272.0377-.0243.0378-.024.0394-.0222.041-.0187.0395-.0173.0429-.0155.0429-.0155.0446-.0102.0446-.0102.0446-.007.0446-.005.0463-.004H1.1184l.0463.004.0463.007.0463.009.0463.0102.0463.0138.0789.024.0772.0187.0805.0173.0772.0155.0804.0102.0773.008.0772.004.079.002h.0889l.0413-.002.043-.004.087-.0102.0876-.0102.0843-.0155.084-.0205.084-.0222.0822-.024.0825-.0293.0804-.031.0808-.036.0769-.0378.0755-.0409.0773-.043.072-.048.072-.048.0706-.0515.0667-.055.0653-.0564.0617-.0586.0617-.0617.0582-.0653.0568-.0649.0512-.067.0515-.0702.0462-.074.0448-.0738.0427-.0755.0377-.0755.0346-.0787.0342-.0825.0275-.0822.0222-.0773.0205-.0755.0155-.0773.0155-.0804.012-.0808.007-.0808.005-.084z" fill="#a3cd89"/>
    <path d="M4.1962 1.0715l.002-.048.004-.048.007-.0466.007-.0462.0102-.0444.012-.0448.016-.0445.0154-.043.0187-.0395.0208-.041.0226-.0394.024-.0377.0261-.0377.0275-.0342.031-.0346.031-.0325.031-.031.0363-.029.0346-.0274.0363-.0275.0395-.024.0381-.0222.0413-.0208.0416-.0205.043-.0173.0416-.0134.0448-.0138.0466-.009.0448-.0102.0483-.005.047-.004.0482-.002.0501.002.0483.002.0466.007.0466.008.0466.009.0448.0138.0416.0138.043.0169.0416.019.0413.0205.0381.0222.0395.024.0381.0258.0346.0275L5.77.373l.0328.0325.031.031.031.0325.0275.036.0261.036.024.0377L5.965.62l.0226.0377.0187.043.0173.0427.0138.043.0141.0445.0102.043.008.0462.007.0462.004.0483v.048l.002.084.005.084.0106.0808.0102.0808.0155.0804.0173.0773.0173.0755.0243.0773.0138.0409.0155.0413.0138.0413.0173.0413.019.0377.0155.0409.019.0395.0205.036.0416.0755.0466.0737.0466.074.0501.0703.0536.067.0568.0649.059.0653.0602.0617.064.0586.0673.0564.0656.055.071.0515.0705.048.0762.048.076.043.0757.0409.0797.0378.0794.036.0794.031.0847.0293.083.024.0825.0222.0864.0205.0864.0155.0864.0102.0861.0102.0452.004.043.002h.0882l.0776-.002.0794-.004.0794-.008.0776-.0102.0797-.0155.0794-.0173.0794-.0187.0794-.024.0466-.0138.0466-.0102.0466-.009.047-.007.0465-.004h.0932l.0466.004.0448.005.0434.007.0448.0102.043.0102.0434.0155.043.0155.0416.0173.0395.0187.04.0222.0394.024.0363.0243.0381.0272.0328.031.0346.0289.031.031.0328.036.0275.0342.0275.0377.0261.0378.0222.0395.0226.0413.0208.0444.019.0413.0138.0462.0138.0466.0102.0462.0106.0462.005.0466.004.0462.002.0462-.002.0466-.002.0444-.005.0462-.007.0448-.012.0444-.0106.043-.0138.0413-.0173.0427-.0173.0413-.019.0413-.0223.0377-.0226.0392-.0258.036-.0293.0363-.0279.0342-.031.0342-.031.031-.0346.0325-.0363.0275-.036.0275-.0399.024-.0399.024-.0413.0222-.043.0208-.0452.0152-.0466.0173-.074.0222-.0728.0205-.074.0208-.0763.0187-.074.0155-.0745.0155-.0759.0155-.0759.012-.0744.008-.074.012-.0745.007-.074.009-.0759.004-.0744.003-.074.004H8.2322l-.081-.002-.083-.004-.081-.005-.0812-.009-.081-.007-.0812-.012-.0794-.0102-.081-.0138-.0795-.0138-.0776-.0173-.0797-.0187-.0776-.0173-.0776-.0205-.0794-.024-.0762-.0222-.0759-.0258-.0758-.0293-.0744-.0275-.074-.0293-.0745-.029-.0723-.0341-.0727-.0328-.0705-.036-.0709-.036-.0709-.0377-.069-.0378-.0689-.0413-.0674-.0427-.0674-.043-.0674-.0445-.0656-.043-.0639-.048-.062-.0497-.064-.048-.0624-.0515-.0603-.0515-.0603-.0515-.0572-.055-.0586-.0547-.0572-.0568-.055-.0582-.0554-.0586-.0519-.06-.0519-.06-.0533-.0635-.05-.0635-.0484-.0635-.0466-.0653-.0469-.0667-.0448-.067-.0448-.0684-.043-.0688-.0399-.0702-.0399-.0723-.0378-.072-.0363-.0737-.0363-.0737-.0346-.0737-.0328-.0755-.031-.079-.0293-.0773-.0293-.0773-.026-.0804-.0223-.0702-.019-.0688-.019-.0737-.019-.072-.0174-.0741-.0138-.072-.0155-.0737-.0138-.0755-.0102-.0737-.0106-.0773-.008-.0755-.005-.0773-.005-.0755-.007-.0787-.002-.079zM8.4267 8.2167l.0257.0413.0261.0413.0222.043.0208.0399.017.0444.0154.043.0138.0448.0102.0448.009.0448.007.0448.004.0448.002.0448v.0445l-.002.0448-.004.0466-.005.0448-.0106.043-.0102.0447-.0138.0413-.0138.043-.0173.043-.0187.0413-.0208.0413-.024.0379-.024.0396-.0275.036-.0275.0363-.0328.0344-.0328.0344-.0342.031-.0363.031-.0395.0293-.0377.0275-.043.024-.0413.0225-.043.0207-.043.0172-.0448.0155-.043.0138-.0427.0103-.0448.009-.0466.007-.0448.005-.0445.002h-.0466l-.0448-.002-.0448-.003-.0448-.009-.0445-.007-.043-.0103-.0448-.0138-.0413-.0155L7.29 9.625l-.043-.019-.0395-.0223-.0377-.0224-.0399-.0241-.0377-.0275-.036-.0293-.0346-.031-.0342-.0327-.0328-.0344-.0293-.0362-.0293-.0396-.048-.0637-.05-.0637-.0534-.0602-.0515-.0568-.055-.0551-.0568-.0535-.0586-.0497-.0603-.0466-.0187-.0138-.0208-.0173-.067-.0462-.0688-.0448-.074-.0413-.0724-.0363-.0755-.036-.074-.031-.079-.0275-.0777-.0257-.0773-.0226-.0808-.0187-.0794-.0173-.0825-.012-.0808-.0123-.0825-.007-.0808-.004-.0825-.002-.086.002-.0879.005-.086.0102-.0876.0102-.0843.0155-.086.0173-.0844.0222-.0825.0243-.0843.0293-.0808.031-.0825.0342-.0794.038-.079.0414-.0773.0413-.0758.048-.0723.0519-.067.048-.0653.0519-.0639.055-.06.0568-.062.0602-.0587.062-.055.0637-.0533.0688-.031.0379-.031.0378-.0325.0327-.0363.031-.0342.031-.038.0275-.0396.0258-.0378.0224-.0413.0224-.0413.0206-.0413.0155-.043.0155-.0413.0155-.0448.0103-.0448.009-.0444.007-.0448.005-.0448.003h-.0448l-.0462-.002-.0448-.003-.0448-.005-.0448-.009-.0448-.0103-.043-.0138-.0444-.0138-.043-.0172-.043-.019-.0413-.0223-.0413-.0241-.0395-.0258-.0399-.0276-.0377-.0292-.0342-.0327-.0363-.0327-.031-.0361-.0289-.0344-.0293-.038-.0258-.0378-.0226-.0396-.0222-.0413-.019-.0396-.0173-.0413-.0155-.043-.0138-.043-.012-.0448-.007-.0448-.009-.043-.005-.0448-.002-.0448-.002-.0444.002-.0466.004-.0448.007-.0448.009-.0448.008-.0448.0138-.043.0155-.0445.0155-.043.0187-.043.0226-.0413.024-.04.0257-.0412.0275-.0395.0483-.0621.0515-.0617.0497-.0603.052-.0586.0514-.0586.055-.055.0533-.055.055-.0568.0568-.052.0568-.0514.0586-.0497.0586-.0501.06-.0483.0586-.0462.0621-.0466.0617-.0448.0656-.0466.0688-.0445.0688-.0448.0688-.0413.0706-.04.0705-.0412.0706-.0378.0737-.036.0723-.0346.0741-.0328.0723-.0328.0737-.0307.0741-.0293.0776-.0275.0755-.0261.076-.024.0772-.024.0758-.0226.0773-.0205.079-.019.076-.0155.0772-.0173.0811-.0152.0773-.0123.0776-.012.0808-.008.0773-.0102.0808-.007.0794-.005.0773-.003.0808-.002.0794-.002.079.002.076.002.0772.003.079.004.076.007.0772.008.0776.009.0773.012.0758.0102.0755.0155.0776.0138.0755.0173.076.0187.0772.019.0741.0208.076.0222.0736.024.0723.0275.076.0275.0722.0279.072.0289.0723.0346.0723.031.0706.0342.0705.038.0688.036.0706.0396.0688.0416.067.043.067.0445.0674.043.067.0483.0137.0102.0173.0106.0152.012.0138.0102.0586.0448.055.0448.0568.0462.055.0483.0533.05.0554.0498.0515.05.0515.055.0515.0534.0501.0533.0497.0586.0501.0568.0462.0586.0483.0603.0466.0617z" fill="#a3cd89"/>
    <path d="M3.5044 4.7898l.0582-.024.0564-.024.0582-.0258.0564-.0257.0565-.0275.055-.0275.0565-.029.053-.0292.055-.031.0546-.0307.0515-.031.053-.0342.1043-.0653.101-.0702.0514-.0395.0533-.0395.0494-.0377.0497-.0413.0497-.0413.048-.041.0494-.0412.0462-.0448.048-.0445.0448-.0448.0462-.0462.0445-.0462.0444-.0462.0445-.0483.043-.048.041-.0497-.06-.0737-.06-.0755-.0566-.079-.0547-.0773-.055-.079-.0512-.0822-.0497-.0822-.048-.0843-.0445-.0875-.0444-.0857-.043-.0875-.0409-.091-.036-.091-.0377-.091-.0325-.0942-.0325-.0945-.0222-.0702-.019-.0688-.0187-.0737-.0187-.072-.0173-.0737-.0138-.0723-.0152-.0737-.0138-.0755-.0102-.0737-.0106-.0773-.008-.0755-.005-.0773-.005-.0755-.007-.0787-.002-.079-.002-.0773-.002.0822-.005.0825-.007.0808-.012.0804-.0155.0773-.0152.0772-.0205.0755-.0226.0755-.0272.0822-.0342.0825-.0342.079-.0377.0755-.0427.0755-.0448.0737-.0462.0737-.0512.0702-.0515.067-.0564.0653-.0582.0653-.0617.0617-.0617.0582-.0649.0568-.0667.0547-.0702.0515-.072.0483-.072.048-.0769.0427-.0755.0413-.0769.0377-.0804.036-.0808.031-.0822.0293-.0822.024-.0836.0222-.084.0205-.084.0155-.0875.0102-.087.0102-.0428.004-.0413.002h-.1558l-.0667-.004-.0684-.008-.0684-.007-.0667-.0102-.0688-.012-.0683-.017-.0668-.0154.0685.024.0684.0275.067.0257.0667.0275.0667.0289.0653.0328.0632.0289.0635.0328.063.0342.0618.0324.06.0378.06.0346.0582.0377.06.0395.0565.0377.0582.0395.0787.0582.0787.0617.0755.06.0737.0653.072.067.0716.0667.0688.0688.0667.0702.0649.0723.0653.0737.06.0737.0596.0755.0568.079.0564.0772.0529.079zM.7672 4.8928h.007l.0747.0222.0764.0208L1 4.9563l.0747.019.0747.0155.0747.0155.0764.0152.0747.0123.0747.008.0747.012.0764.007.0765.009.0744.004.0748.003.0748.004h.1754l.1008-.004.0988-.005.0991-.009.1006-.0102.099-.012.0975-.0155.0988-.0173.0956-.0205.099-.0205.0954-.0243.0938-.0275.0938-.0272.0938-.031.0938-.0342.0903-.0328.0346.0533.0314.055.0346.0582.0296.055.0314.0586.031.0564.0279.0568.0279.0603.026.0564.0258.0603.0243.0617.0243.0586.0226.06.0226.06.0226.062.0208.06.0194.0622.0173.0582.0155.0617.0173.062.0159.06.0138.0618.0138.062.014.0618.0103.0635.009.0603.012.0635.007.0635.009.0617.007.0639.005.0635.004.0617-.0903.024-.0903.0258-.0903.031-.0903.0293-.0885.0325-.0885.0346-.0868.036-.0868.0395-.0871.0413-.0833.0395-.085.0444-.085.0466-.0818.0497-.0815.0497-.0801.0533-.0797.0533-.0624.0448-.0628.0462-.059.0466-.0606.048-.0593.0497-.059.05-.057.0516-.0575.0515-.0554.0568-.054.0547-.0557.055-.052.0586-.0521.0582-.0505.0603-.052.0617-.0486.0617-.007.0106-.005.008.0469-.067.0434-.0688.0385-.0688.0399-.0702.0328-.0723.0332-.0702.0279-.0723.0258-.0737.026-.0826.0227-.0861.019-.0857.0176-.0861.0102-.0875.009-.0857.005-.0861.002-.0875-.002-.088-.005-.084-.0106-.0877-.0102-.0857-.016-.0843-.019-.084-.0225-.0825-.0243-.0843-.0275-.0808-.0296-.0804-.0363-.0776-.035-.0773-.0415-.0755-.0434-.0755-.047-.0723-.0486-.0702-.0522-.0706-.0554-.0653-.0575-.0653-.0625-.0635-.0624-.0603-.066-.06-.0695-.055-.073-.055-.066-.043-.0676-.0427-.0695-.0413-.0712-.0377-.0747-.0346-.0747-.0325-.08-.031z" fill="#64b346"/>
    <path d="M4.1415 6.7022l.007.0967.004.0967v.1951l-.004.0967-.008.0967-.007.0967-.012.0949-.012.0967-.0155.0967-.0187.0949-.0173.0967-.024.0949-.024.0949-.0293.0949-.0275.093-.024.0692-.024.0674-.0257.067-.0258.0656-.0275.0674-.0307.0656-.0293.0656-.031.0639-.0342.0656-.0342.0656-.036.0639-.036.0637-.038.062-.041.064-.0395.0604-.0413.062.048-.0586.0515-.0552.0515-.0535.055-.0552.055-.0483.0547-.0483.0603-.0466.06-.0413.072-.052.0755-.0482.0773-.0416.079-.0413.079-.0381.0822-.0342.0808-.0314.0843-.0293.0822-.024.0843-.0226.0857-.0173.084-.0155.0875-.0102.0861-.0102.0875-.005.0857-.002.0825.002.0804.004.0826.007.0808.0123.0822.012.079.0173.0808.0187.0773.0226.0773.0257.0787.0279.0741.031.0755.036.072.0363.0737.0416.0688.0448.067.0466.0205.0173.0191.0138.0497.0395.048.0416.048.043.0466.0415.0445.0466.0448.0483.0427.05.0413.0518-.0377-.0587-.0377-.0587-.036-.0604L6.676 8.99 6.64 8.928l-.0325-.0621-.0328-.059-.0289-.0634-.0293-.0607-.031-.0621-.0258-.064-.0257-.062-.0258-.064-.024-.0638-.0222-.0621-.0222-.0656-.0293-.095-.0275-.0948-.024-.0967-.0222-.0967-.0208-.0967-.0187-.0967-.0155-.0984-.012-.0981-.012-.0984-.007-.0967-.005-.0984-.004-.0984-.004-.0984.004-.0967.004-.0998.005-.0967-.1185-.0275-.1203-.0226-.1217-.0208-.1203-.0155-.12-.012-.122-.008-.1235-.005-.1203-.002-.067.002-.0635.002-.0653.002-.0667.003-.0653.005-.0653.005-.067.008-.0635.007-.0653.008-.0653.0106-.0653.0102-.0649.0137-.0639.012-.0635.0138-.0649.0155zM5.8825 4.316l.0515.0342.0515.036.0515.0328.0519.0325.0533.0346.055.0307.0515.031.055.0307.055.0293.055.0275.055.0275.0568.0293.0564.0258.0568.0258.0568.024.0586.0222.0515-.0808.0533-.079.0568-.0787.0568-.0773.0617-.076.0603-.0754.0635-.072.0653-.072.067-.0706.0688-.0688.0723-.0684.0723-.0653.0737-.0653.0759-.06.079-.0621.079-.0582.0586-.0395.055-.0377.0603-.0378.0564-.0377.0603-.036.0603-.0346.0617-.0342.0617-.0342.062-.031.0654-.031.0635-.029.0656-.031.067-.0275.0653-.0258.0688-.0257.067-.0257-.0635.0173-.067.0138-.0674.012-.067.0102-.0653.007-.067.007-.0653.004H8.1946l-.043-.002-.0445-.004-.0861-.0102-.0861-.0102-.0861-.0155-.0857-.0205-.0825-.0226-.0825-.024-.0843-.0293-.079-.0307-.079-.036-.0794-.0377-.0755-.0413-.0755-.043-.0758-.048-.0706-.048-.0706-.0515-.0653-.055-.067-.0568-.0635-.0582-.0603-.0617-.0586-.0653-.0564-.0653-.0533-.067-.0501-.0702-.0462-.0741-.0466-.0737-.0413-.0755-.0205-.036-.0191-.0395-.0155-.0413-.0191-.0378-.017-.0413-.0137-.0413-.0155-.041-.0138-.0412-.0222-.0755-.019-.0755-.0173-.0773-.0155-.0773-.0102-.0808-.008-.0808-.005-.0822-.004-.0825v.0773l-.003.079-.004.079-.007.0755-.007.0773-.007.0755-.012.0773-.0102.0737-.0138.0755-.012.074-.0155.072-.0173.0738-.017.0723-.0207.0737-.0205.0684-.0208.0706-.0342.0945-.0328.0942-.0346.091-.0395.091-.0395.091-.043.0875-.0445.086-.0466.0876-.048.084-.0501.0825-.0515.0822-.0515.079-.0568.0773-.0568.079-.06.0755-.0603.0737.0413.05.043.048.0448.048.0427.0463.0466.0466.0448.0462.0462.0448.0483.0444.0462.0448.0483.0413.0497.0409.0483.0413.0515.0413.0515.0377.0497.0395z" fill="#64b346"/>
    <path d="M9.4879 4.8952l-.0773.0275-.0773.0311-.0755.0328-.0737.0346-.0702.0381-.0688.0416-.0684.043-.0653.043-.0705.0554-.0684.0554-.0653.0603-.0635.0607-.06.064-.0568.0655-.0533.0656-.053.071-.0496.0708-.0448.0727-.043.076-.0392.0761-.0378.0776-.0328.0776-.0325.0815-.0258.0811-.0258.0847-.0208.083-.0187.0846-.0138.0847-.0138.0864-.007.0882-.005.0847-.004.0878.004.0882.004.0864.008.0864.012.0882.0138.0864.0205.0864.0226.0864.0257.083.0257.074.0272.0727.0328.0727.0342.0723.0377.071.0413.069.0427.0692.0466.0674.0289.0434.0243.0328.0152.0205.005.007-.004-.004-.012-.0155-.024-.0328-.0307-.0466-.0448-.0607-.0462-.062-.048-.0604-.0466-.0589-.0497-.057-.0497-.0587-.0497-.0536-.0515-.0536-.0515-.055-.0515-.0504-.0547-.05-.0533-.0502-.055-.0483-.0564-.0466-.055-.0448-.0582-.0452-.0138-.0102-.0155-.012-.0173-.0106-.0138-.0102-.0804-.057-.0808-.0537-.0822-.055-.0825-.05-.084-.047-.0857-.0466-.0843-.0413-.0875-.0416-.0875-.0399L6.683 6.88l-.0893-.036-.0875-.031-.091-.0296-.0893-.0293-.0924-.026-.091-.0223.005-.0624.005-.062.007-.0604.008-.0624.007-.0639.0106-.0603.0102-.0607.012-.0603.0258-.1245.0275-.121.0342-.1192.0342-.1193.0208-.0603.0205-.062.0222-.0608.024-.0603.0222-.0589.0257-.062.0258-.0604.0257-.0572.0275-.0607.0293-.0568.0293-.0572.0289-.0586.031-.0554.0325-.0589.0328-.055.0342-.0554.091.0346.091.0346.0924.031.0928.0275.0942.0261.0945.024.0942.0226.0963.0208.096.0173.0977.0155.0963.012.0995.0106.0977.008.0995.005.0995.004h.1735l.0738-.004.0737-.004.0755-.004.0737-.008.0737-.007.0737-.012.074-.009.0756-.012.0755-.0155.0737-.0155.0737-.0155.0755-.019.0737-.0208.072-.0208.074-.0222z" fill="#64b346"/>
  </g>
</svg>
