<svg version="1.2" xmlns="http://www.w3.org/2000/svg" viewBox="0 0 17 18" width="17" height="18">
	<title>icn--more-svg</title>
	<style>
		.s0 { fill: #4078bc } 
		.s1 { fill: #dddddd } 
	</style>
	<g id="Symbols">
		<g id="Button/Textual/Default">
			<g id="Group">
				<path id="Box" class="s0" d="m0 2c0-1.1 0.9-2 2-2h13c1.1 0 2 0.9 2 2v14c0 1.1-0.9 2-2 2h-13c-1.1 0-2-0.9-2-2z"/>
				<path id="Combined-Shape" fill-rule="evenodd" class="s1" d="m12.4 9.2l-5.3 5.3c-0.3 0.4-0.9 0.4-1.3 0-0.4-0.4-0.4-1 0-1.4l4-3.9-4-4c-0.4-0.4-0.4-1 0-1.4 0.4-0.3 1-0.3 1.3 0l5.3 5.3h-0.1z"/>
			</g>
		</g>
	</g>
</svg>